Patient4_TMGait_0pt3_03_right_27_EMG.mot
version=1
nRows=33
nColumns=33
inDegrees=no
endheader
time	1LAddLong	2LGlutMax	3LGlutMed	4LIliopsoas	5LSemiMemb	6LBicFemLong	7LRecFem	8LVastMed	9LVastLat	10LGasMed	11LTibAnt	12lTibPost	13LPeroneusLong	14LSol	15LExtDigLong	16LFlexDigLong	17RAddLong	18RGlutMax	19RGlutMed	20RIliopsoas	21RSemiMemb	22RBicFemLong	23RRecFem	24RVastMed	25RVastLat	26RGasMed	27RTibAnt	28RTibPost	29RPeroneusLong	30RSol	31RExtDigLong	32RFlexDigLong
50.42	0.002136	0.049133	-0.042877	0.027161	0.005951	0.034485	-0.18112	-0.02182	0.31952	0.11185	-0.014648	-0.034943	1.1224	-0.10941	0.001831	0.007782	0.012512	-0.018158	-0.059052	0.052185	-0.029144	-0.004578	0.075531	0.009766	0.010071	-0.001373	-0.45929	-0.002594	0.089417	-0.10071	-0.000305	-0.001373
50.421	0.001373	0.042572	-0.046692	-0.012817	0.002136	0.051727	0.042114	-0.040741	0.39337	0.080261	-0.01297	-0.033417	0.95215	-0.11429	0.007935	0.018616	0.059204	-0.025024	-0.066376	0.058899	-0.037384	-0.015717	0.10971	-0.03067	-0.007477	0.000763	-0.25055	-0.002441	0.041199	0.018005	-0.002289	-0.004883
50.422	-0.003357	0.050659	-0.085449	-0.030518	-0.002594	0.077667	0.26047	-0.032196	0.20264	0.016479	0.022736	0.013123	-0.21606	0.04364	0.016632	-0.002747	0.10071	-0.045624	-0.42786	0.074768	-0.048981	-0.014191	0.14191	-0.021515	-0.005798	0.00061	-0.67963	-0.001526	0.080414	0.027313	-0.005493	0.003815
50.423	-0.008698	0.075684	-0.075226	-0.003052	0.004883	0.057983	0.19562	-0.033722	-0.1178	-0.023651	-0.005035	0.014954	-0.065613	-0.11444	-0.085449	-0.02243	0.14755	-0.079041	-0.43015	-0.009613	-0.068665	-0.039978	0.13031	-0.057373	-0.002441	0.005493	-0.793	-0.003967	0.19455	0.041199	0.002747	-0.000916
50.424	-0.006409	0.033722	0.082092	-0.013275	-0.001373	0.072327	0.11032	-0.007782	-0.20721	0.042114	-0.013275	-0.00824	0.32471	-0.19333	-0.060272	0.005341	0.12589	-0.014648	-0.14587	-0.059357	-0.082245	-0.051575	0.11581	-0.092926	-0.025177	-0.00061	-0.76843	-0.005493	0.15976	0.13107	-0.001373	0.002747
50.425	0.001831	0.04364	0.015869	0.000153	-0.002899	0.076447	0.045776	0.024567	-0.050507	0.05249	-0.004578	-0.008545	0.62393	0.025024	-0.022736	0.02243	0.06012	-0.000458	-0.1236	-0.058441	-0.093536	-0.050507	0.14374	-0.043488	-0.016785	-0.014038	-0.52612	-0.000916	0.040436	0.22781	-0.002289	-0.003967
50.426	0.007629	0.056305	0.032806	0.001984	-0.00061	0.075836	0.050659	0.041656	-0.003052	0.035248	0.006866	-0.003967	0.1857	0.16617	0.10864	0.008545	0.057526	-0.049438	-0.014496	-0.13596	-0.094604	-0.030212	0.11169	-0.042572	-0.019379	-0.006866	-0.30792	-0.005798	0.042877	0.14801	-0.002899	-0.00885
50.427	0.01358	0.15686	0.046997	-0.000305	0.003815	0.011292	0.057678	0.032654	0.072174	-0.002136	-0.016174	-0.001984	-0.26962	0.011749	0.038757	-0.001221	0.048676	-0.024261	-0.20691	-0.22781	-0.099182	-0.014038	0.10208	0.012207	-0.026855	-0.001984	-0.13077	-0.000458	-0.038757	0.11871	0.007477	-0.001526
50.428	0.001526	0.25711	0.020447	-0.000153	0.00351	0.057983	0.050354	0.016327	0.2298	0.015259	-0.006409	-0.003357	-0.70755	-0.041809	-0.053101	-0.007782	0.010376	-0.046387	-0.24704	-0.22705	-0.067291	-0.019684	0.086517	0.025482	-0.003815	-0.001678	-0.025024	-0.004425	-0.048828	0.06134	-0.001678	-0.009613
50.429	0.008545	0.25726	-0.051117	-0.01709	0.019226	0.065613	0.052032	0.001221	0.28183	0.032654	-0.01358	0.003204	-0.34042	-0.098267	-0.075836	0.005951	0.025177	-0.08194	-0.28839	-0.1413	-0.090027	-0.018616	0.11185	-0.02121	-0.000458	0.002136	0.56076	-0.003204	-0.16495	0.065155	0.000458	-0.015564
50.43	0.018463	0.27557	-0.006104	-0.014191	0.019836	-0.000458	0.078278	-0.003204	0.31754	0.017548	-0.007935	0.001526	0.081482	-0.11581	-0.045471	0.005951	0.035095	-0.14023	-0.22675	0.052338	-0.084076	0.00061	0.1236	-0.037537	0.00061	-0.003052	0.62592	-0.003815	-0.19791	0.068359	0.000458	-0.010223
50.431	0.014191	0.30594	-0.049438	0.016937	0.036316	-0.08255	0.070496	0.003967	0.31616	0.027161	-0.008698	0.003967	-0.13947	-0.049286	-0.014496	-0.009003	-0.004883	-0.11215	-0.1326	0.28198	-0.058594	0.027618	0.13016	-0.051727	-0.000458	-0.007629	0.85922	-0.003967	-0.25101	0.043793	-0.006256	-0.016327
50.432	0.0177	0.2803	0.08194	0.039673	0.006866	0.14114	0.037994	0.023041	0.31372	0.024414	0.004425	0.001831	-0.12573	-0.023041	-0.026855	0.00061	-0.074463	-0.068207	0.009613	0.28198	-0.071411	0.027161	0.092468	-0.048523	0.01236	-0.014343	1.123	-0.000916	-0.31906	0.089569	0.000305	-0.02533
50.433	0.013733	0.215	-0.023193	0.02182	0.003967	0.31494	-0.031586	-0.007935	0.17792	0.032806	0.000153	0.016174	0.1442	0.00061	-0.04303	-0.007477	-0.1236	-0.1004	-0.034485	0.14038	-0.062561	0.058594	0.12222	-0.014801	0.03006	-0.001068	0.70374	-0.00412	-0.15091	0.079956	-0.003052	-0.009308
50.434	0.011292	0.17807	-0.1355	0.003815	0.002136	0.45395	0.000916	-0.00351	-0.10803	0.047607	-0.019989	0.010681	0.1265	0.018005	-0.068665	-0.016785	-0.17761	-0.14175	0.12024	-0.046997	-0.042572	0.073242	0.12222	0.009918	0.031128	0.014343	0.23544	-0.003967	0.18936	-0.1297	-0.007019	-0.009308
50.435	0.010223	0.12619	-0.12207	0.01709	-0.007935	0.44876	0.057678	-0.019226	-0.44968	0.043793	-0.013428	0.000763	-0.31235	0.11749	0.076294	-0.012817	-0.1767	-0.073853	-0.063324	-0.16708	-0.005341	0.087433	0.076752	0.054779	0.032043	0.010223	0.11017	-0.001984	0.168	-0.23453	-0.006561	0.002136
50.436	0.008392	0.067596	-0.037384	0.014038	0.000153	0.28397	0.018158	-0.008698	-0.49301	0.040894	-0.020294	-0.001068	0.32181	0.16876	0.13687	-0.007782	-0.15335	-0.029449	-0.13473	-0.19455	0.013733	0.072632	0.088196	0.074463	0.027618	-0.003052	0.000153	-0.007019	-0.001221	-0.094452	-0.001831	-0.007629
50.437	0.013733	0.026703	-0.044403	0.016937	0	0.13336	0.06958	0.002441	-0.47699	0.054932	-0.024414	0.012817	0.41443	0.065002	0.031433	-0.02594	-0.11581	-0.032043	0.12619	-0.088806	0.032043	0.044708	0.12314	0.079193	0.014648	-0.00824	-0.16159	-0.008087	0.063477	0.027466	-0.000153	0.001068
50.438	0.009003	-0.049744	-0.083008	0.00473	-0.003052	0.011139	0.059052	0.0354	-0.44571	0.036011	0.004425	0.005188	-0.069275	-0.016632	-0.039978	0.005493	-0.037231	-0.065918	-0.17319	0.018158	0.061798	0.032806	0.14786	0.080414	0.026245	-0.010986	0.024872	-0.002747	0.1149	0.053864	-0.00061	-0.00351
50.439	0.019531	-0.097504	0.043488	0.005493	0.011597	-0.16663	-0.019379	0.043945	-0.31677	0.018768	0.029755	0.009766	-0.47455	-0.057678	-0.02594	-0.015411	0.014954	-0.13245	-0.55115	0.067749	0.046997	0.021057	0.11948	0.07309	0.001068	-0.014343	-0.26779	-0.005798	0.08255	0.23239	-0.001373	-0.014038
50.44	0.027618	-0.079956	-0.093231	0.009308	0.024719	-0.51804	-0.18921	0.031433	-0.057373	0.036926	0	0.006409	-0.30395	-0.065155	-0.10773	-0.020599	0.027466	-0.033417	-0.51849	-0.027771	0.043945	0.003967	0.11383	0.11978	0.028534	-0.012665	-0.75943	-0.006866	0.050201	0.34988	-0.00473	-0.005798
50.441	0.024872	-0.12329	-0.17197	-0.006714	0.019379	-0.45029	-0.1947	0.004272	0.075836	0.037537	0.002441	0.003967	0.005798	-0.082855	-0.13702	-0.007324	0.005188	0.025482	-0.2356	-0.10223	0.055695	-0.032349	0.074615	0.07309	0.020599	-0.01709	-0.51773	-0.003967	0.045929	0.36529	-0.001831	-0.006256
50.442	-0.001068	-0.13077	-0.28519	0.014954	0.007477	-0.18051	0.039215	-0.000153	-0.047455	0.052338	-0.016022	0.009613	-0.11383	-0.064392	-0.047455	-0.002747	-0.039825	0.073547	0.002899	-0.0914	0.029297	-0.053406	0.002289	0.016785	0.003204	-0.010681	-0.35584	-0.003204	0.018158	0.27634	-0.002136	-0.004883
50.443	-0.007172	-0.13001	-0.24612	-0.010376	0.006104	0.016174	0.21942	-0.010986	-0.17822	0.023804	-0.016022	0.001373	-0.103	-0.013885	0.052643	0.000458	-0.050659	0.08255	-0.047302	0.007172	0.015411	-0.059204	0.077209	-0.01297	-0.000458	-0.007477	-0.23422	0.000153	0.035553	0.22171	-0.002747	-0.007324
50.444	-0.026855	-0.13718	-0.32837	0.009155	0.006714	0.09552	0.29739	-0.010681	-0.1648	0.017853	-0.009155	0.005798	-0.097809	0.010986	0.11719	0.008698	-0.000153	0.10529	-0.12192	0.097351	0.001984	-0.064392	0.076447	-0.025482	-0.016327	-0.011749	-0.26642	-0.00351	-0.008545	0.20309	-0.004578	-0.007172
50.445	-0.022888	-0.13855	-0.016327	-0.000916	-0.000458	0.11826	0.19333	0.006561	-0.23529	0.044861	-0.005951	0.005341	-0.060425	-0.023651	0.089264	0.002136	0.016785	0.070648	-0.035858	0.14603	-0.005035	-0.070496	0.039825	-0.071259	-0.015564	-0.011139	-0.25299	-0.002899	-0.063324	0.10925	-0.002136	-0.009918
50.446	-0.025635	-0.12817	-0.077362	0.011292	-0.001526	0.11124	0.11597	0.00473	-0.35049	0.041809	-0.006714	-0.001526	-0.05188	-0.021057	0.051575	-0.00061	0.068054	0.028076	0.11047	0.050354	-0.017853	-0.040436	0.056763	-0.058746	-0.031738	-0.013428	-0.35141	0.001221	-0.094757	0.007324	0.002594	-0.016022
50.447	-0.022736	-0.11932	-0.076294	0.012207	-0.00061	0.072174	-0.083923	0.012512	-0.31403	0.027466	-0.015564	-0.001221	0.081024	0.030823	0.046844	0.001068	0.15427	-0.007019	0.16327	0.054169	-0.004578	-0.039673	0.072327	-0.046234	-0.004578	-0.01709	-0.40817	-0.000305	-0.16083	0.048523	-0.001984	-0.00885
50.448	-0.01236	-0.075378	0.17792	-0.004578	-0.001526	0.020447	-0.36041	0.009003	-0.14084	0.029449	-0.002899	0.000916	0.046844	0.015564	-0.004425	-0.002441	0.15411	-0.00824	-0.18723	0.077515	0.006866	-0.032959	0.112	-0.045319	-0.008087	-0.016327	-0.33997	0.002441	-0.21378	0.090942	0.005188	-0.014801
50.449	-0.022278	-0.007172	0.15945	0.015717	0.020294	-0.15533	-0.47012	-0.006256	0.16052	0.039063	0.003357	0.008392	0.008698	-0.056458	-0.006409	-0.006409	0.10986	0.006866	-0.42252	0.10101	0.021057	-0.017395	0.098724	0.000916	0.00885	-0.016174	-0.10925	0.00473	-0.21606	0.026093	0.000458	-0.012817
50.45	-0.029907	0.097046	0.29999	-0.020142	0.002594	-0.25314	-0.42648	0.02594	0.51849	0.059052	0.014801	0.010071	0.018616	0.039825	-0.00946	0.004272	0.056458	0.013275	-0.2858	0.02243	0.034485	-0.005798	0.15076	0.039978	0.022125	-0.000763	0.30518	-0.002289	-0.15701	-0.097809	0.000458	-0.00061
50.451	-0.016022	0.13138	0.074158	-0.010223	0.00473	-0.10895	-0.32044	-0.001221	0.78461	0.049591	0.005188	0.005188	-0.021973	0.015564	-0.028687	-0.000153	0.043335	0.030212	-0.20416	-0.035248	0.043182	0.00412	0.12878	0.10208	0.015411	-0.000305	0.57327	0.001831	-0.12619	-0.16663	-0.002441	-0.005341
50.452	-0.014801	0.21454	-0.079193	-0.007172	-0.001984	-0.016632	-0.16922	-0.042725	0.6337	0.055695	0.001373	0.004272	-0.080719	-0.004425	-0.058136	0.007324	-0.000916	0.05249	-0.16708	0.058136	0.042877	0.021362	0.10605	0.12146	0.030823	0.002441	0.56412	0.006714	-0.09964	-0.2301	0.000916	-0.002747
